<svg width="18" height="13" viewBox="0 0 18 13" xmlns="http://www.w3.org/2000/svg"><title>cloud-upload</title><path d="M7.437 1.938a3.47 3.47 0 0 0-1.763.464c-.538.31-.962.734-1.272 1.272a3.47 3.47 0 0 0-.465 1.764v.027A2.989 2.989 0 0 0 2.064 6.49a2.961 2.961 0 0 0-.752 2.01c0 .547.137 1.057.41 1.531.274.474.648.848 1.122 1.121.474.274.984.41 1.531.41h9.187c.73 0 1.35-.255 1.86-.765s.765-1.13.765-1.86c0-.729-.255-1.348-.765-1.859a2.531 2.531 0 0 0-1.86-.765h-.246c.164-.274.246-.566.246-.875 0-.493-.168-.907-.505-1.245a1.691 1.691 0 0 0-1.245-.505c-.437 0-.82.136-1.148.41a3.384 3.384 0 0 0-1.258-1.559 3.394 3.394 0 0 0-1.969-.601zm0-1.313c.748 0 1.45.164 2.106.492A5.13 5.13 0 0 1 11.21 2.43c.2-.037.401-.055.601-.055.803 0 1.5.273 2.092.82.593.547.916 1.222.971 2.024a3.813 3.813 0 0 1 1.9 1.435c.483.684.725 1.445.725 2.284a3.8 3.8 0 0 1-.533 1.968 4.013 4.013 0 0 1-1.436 1.436 3.8 3.8 0 0 1-1.969.533H4.375a4.28 4.28 0 0 1-2.188-.588 4.344 4.344 0 0 1-1.6-1.6A4.28 4.28 0 0 1 0 8.5c0-.893.25-1.709.752-2.447a4.26 4.26 0 0 1 1.982-1.6A4.586 4.586 0 0 1 4.39 1.705 4.69 4.69 0 0 1 7.437.625zm1.094 9.297a.316.316 0 0 1-.095.232.316.316 0 0 1-.233.096h-.656a.316.316 0 0 1-.233-.096.316.316 0 0 1-.095-.232v-3.8L5.715 7.624a.26.26 0 0 1-.219.11.34.34 0 0 1-.246-.11l-.438-.437a.34.34 0 0 1-.109-.247.26.26 0 0 1 .11-.218l2.843-2.844a.26.26 0 0 1 .219-.11.26.26 0 0 1 .219.11l2.843 2.844a.26.26 0 0 1 .11.218.34.34 0 0 1-.11.247l-.437.437a.34.34 0 0 1-.246.11.26.26 0 0 1-.219-.11L8.531 6.121v3.8z" fill="#EABE00" fill-rule="evenodd"/></svg>