<svg width="37" height="26" viewBox="0 0 37 26" xmlns="http://www.w3.org/2000/svg"><path d="M15.406 2.25a7.872 7.872 0 0 0-4.078 1.105 8.312 8.312 0 0 0-2.974 2.973 7.872 7.872 0 0 0-1.104 4.078c0 .34.019.661.057.963-1.549.227-2.851.935-3.909 2.124-1.057 1.19-1.586 2.577-1.586 4.163 0 1.133.284 2.19.85 3.172a6.23 6.23 0 0 0 2.322 2.322c.982.567 2.04.85 3.172.85H29c1.51 0 2.794-.529 3.851-1.586 1.058-1.057 1.586-2.341 1.586-3.851 0-1.36-.434-2.54-1.302-3.54-.869-1.001-1.964-1.615-3.285-1.841.641-.793.962-1.718.962-2.776 0-1.246-.443-2.313-1.33-3.2-.888-.887-1.974-1.331-3.257-1.331-1.284 0-2.38.49-3.286 1.473-.604-1.51-1.586-2.738-2.945-3.682-1.36-.944-2.889-1.416-4.588-1.416zm0-1.812c1.662 0 3.21.377 4.645 1.132a9.629 9.629 0 0 1 3.511 3.116 6.228 6.228 0 0 1 2.72-.623c1.132 0 2.19.283 3.171.85a6.23 6.23 0 0 1 2.322 2.321c.567.982.85 2.04.85 3.172 0 .604-.076 1.19-.227 1.756a7.376 7.376 0 0 1 2.804 2.69 7.03 7.03 0 0 1 1.048 3.71c0 1.322-.321 2.54-.963 3.654a7.053 7.053 0 0 1-2.634 2.634 7.189 7.189 0 0 1-3.653.962H8.156a7.872 7.872 0 0 1-4.078-1.104 8.312 8.312 0 0 1-2.974-2.974A7.872 7.872 0 0 1 0 17.656c0-1.737.5-3.313 1.501-4.73 1-1.415 2.313-2.406 3.936-2.973A9.692 9.692 0 0 1 6.91 5.167a9.946 9.946 0 0 1 3.625-3.455A9.775 9.775 0 0 1 15.406.438zm2.719 19.257c0 .19-.066.35-.198.482a.655.655 0 0 1-.482.198h-.453a.655.655 0 0 1-.481-.198.655.655 0 0 1-.199-.482v-8.552l-3.851 3.851a.704.704 0 0 1-.51.227.538.538 0 0 1-.453-.227l-.34-.283a.828.828 0 0 1-.17-.51c0-.189.057-.34.17-.453l5.608-5.607a.612.612 0 0 1 .453-.17c.189 0 .34.056.453.17l5.607 5.607c.114.113.17.264.17.453a.828.828 0 0 1-.17.51l-.34.283a.538.538 0 0 1-.453.227.704.704 0 0 1-.51-.227l-3.851-3.851v8.552z" fill="#EABE00" fill-rule="evenodd"/></svg>
