<svg width="30" height="27" viewBox="0 0 30 27" xmlns="http://www.w3.org/2000/svg"><title>content</title><path d="M21.227 16.246l1.015-1.016a.328.328 0 0 1 .33-.025c.119.05.178.144.178.28v8.327a2.35 2.35 0 0 1-.711 1.727 2.35 2.35 0 0 1-1.727.711H2.437a2.35 2.35 0 0 1-1.726-.71A2.35 2.35 0 0 1 0 23.811V5.938C0 5.26.237 4.685.71 4.21A2.35 2.35 0 0 1 2.438 3.5h14.829c.135 0 .228.06.279.178.05.118.025.228-.076.33l-.965 1.015a.344.344 0 0 1-.254.102H2.437a.79.79 0 0 0-.583.229.79.79 0 0 0-.229.584v17.874a.79.79 0 0 0 .229.584.79.79 0 0 0 .583.229h17.875a.79.79 0 0 0 .584-.229.79.79 0 0 0 .229-.584V16.5c0-.102.034-.186.102-.254zm7.414-9.7L12.746 22.442 7.668 23a1.02 1.02 0 0 1-.863-.305 1.02 1.02 0 0 1-.305-.863l.559-5.078L22.953.859C23.36.453 23.86.25 24.451.25c.593 0 1.092.203 1.498.61l2.692 2.69c.406.407.609.906.609 1.499 0 .592-.203 1.092-.61 1.498zm-4.774 2.49l-3.402-3.403L8.633 17.465l-.406 3.86 3.808-.458L23.867 9.035zm3.606-4.368l-2.641-2.64a.517.517 0 0 0-.38-.153c-.153 0-.28.05-.382.152l-2.437 2.438 3.402 3.402 2.438-2.437a.517.517 0 0 0 .152-.381c0-.152-.05-.28-.152-.381z" fill="#FFF" fill-rule="evenodd"/></svg>