<?xml version="1.0" encoding="UTF-8"?>
<svg width="30px" height="24px" viewBox="0 0 30 24" version="1.1" xmlns="http://www.w3.org/2000/svg" xmlns:xlink="http://www.w3.org/1999/xlink">
    <!-- Generator: Sketch 46.2 (44496) - http://www.bohemiancoding.com/sketch -->
    <title>dashboard</title>
    <desc>Created with Sketch.</desc>
    <defs></defs>
    <g id="app" stroke="none" stroke-width="1" fill="none" fill-rule="evenodd">
        <g id="/dashboard-copy-4" transform="translate(-25.000000, -1089.000000)" fill="#FFFFFF">
            <path d="M49.7811909,1111.40625 C49.7811909,1111.74479 49.6627019,1112.03255 49.425723,1112.26953 C49.1887442,1112.50651 48.9009849,1112.625 48.5624438,1112.625 L42.6718329,1112.625 C42.5025627,1112.625 42.3586823,1112.56575 42.2401933,1112.44726 C42.1217042,1112.32877 42.0624593,1112.18489 42.0624593,1112.01562 L42.0624593,1106.32814 C42.0624593,1106.15887 42.0032144,1106.01499 41.8847254,1105.8965 C41.7662363,1105.77801 41.6223559,1105.71876 41.4530858,1105.71876 L37.7968445,1105.71876 C37.6275743,1105.71876 37.4836939,1105.77801 37.3652049,1105.8965 C37.2467159,1106.01499 37.1874709,1106.15887 37.1874709,1106.32814 L37.1874709,1112.01562 C37.1874709,1112.18489 37.128226,1112.32877 37.009737,1112.44726 C36.8912479,1112.56575 36.7473676,1112.625 36.5780974,1112.625 L30.6874864,1112.625 C30.3489453,1112.625 30.0611861,1112.50651 29.8242072,1112.26953 C29.5872284,1112.03255 29.4687393,1111.74479 29.4687393,1111.40625 L29.4687393,1104.14455 C29.4687393,1103.94142 29.5364473,1103.77215 29.6718639,1103.63674 L39.2187161,1095.81644 C39.3541327,1095.71488 39.4895485,1095.6641 39.6249651,1095.6641 C39.7603817,1095.6641 39.8957976,1095.71488 40.0312142,1095.81644 L49.5780664,1103.63674 C49.713483,1103.77215 49.7811909,1103.94142 49.7811909,1104.14455 L49.7811909,1111.40625 Z M54.0468057,1101.0469 C54.148368,1101.14846 54.2076129,1101.28388 54.2245397,1101.45315 C54.2414665,1101.62242 54.1991491,1101.77476 54.0975869,1101.91018 L52.8280587,1103.48439 C52.7264964,1103.61981 52.5910798,1103.68752 52.4218096,1103.68752 C52.2525394,1103.68752 52.1001961,1103.63674 51.9647795,1103.53517 L40.0312142,1093.73442 C39.8957976,1093.63285 39.7603817,1093.58207 39.6249651,1093.58207 C39.4895485,1093.58207 39.3541327,1093.63285 39.2187161,1093.73442 L27.2851508,1103.53517 C27.1497342,1103.63674 26.9973908,1103.68752 26.8281206,1103.68752 C26.6588505,1103.68752 26.5234339,1103.61981 26.4218716,1103.48439 L25.1523434,1101.91018 C25.0507811,1101.77476 25.0084638,1101.62242 25.0253906,1101.45315 C25.0423173,1101.28388 25.1015623,1101.14846 25.2031245,1101.0469 L38.1015313,1090.43364 C38.5416346,1090.06125 39.0494459,1089.87505 39.6249651,1089.87505 C40.2004843,1089.87505 40.7252232,1090.06125 41.1991801,1090.43364 L45.7187006,1094.19145 L45.7187006,1090.48442 C45.7187006,1090.31515 45.7779455,1090.17127 45.8964346,1090.05278 C46.0149236,1089.9343 46.158804,1089.87505 46.3280741,1089.87505 L49.1718174,1089.87505 C49.3410875,1089.87505 49.4849679,1089.9343 49.603457,1090.05278 C49.721946,1090.17127 49.7811909,1090.31515 49.7811909,1090.48442 L49.7811909,1097.543 L54.0468057,1101.0469 Z" id="dashboard" transform="translate(39.624965, 1101.250023) scale(-1, 1) translate(-39.624965, -1101.250023) "></path>
        </g>
    </g>
</svg>