<svg width="14" height="19" viewBox="0 0 14 19" xmlns="http://www.w3.org/2000/svg"><path d="M13.258 3.695c.328.328.492.727.492 1.196v11.671c0 .47-.164.868-.492 1.196a1.627 1.627 0 0 1-1.196.492H1.937c-.468 0-.867-.164-1.195-.492a1.627 1.627 0 0 1-.492-1.195V1.938c0-.47.164-.868.492-1.196A1.627 1.627 0 0 1 1.937.25H9.11c.47 0 .868.164 1.196.492l2.953 2.953zm-.809.809L9.496 1.55a.938.938 0 0 0-.246-.176V4.75h3.375a.939.939 0 0 0-.176-.246zm-.387 12.621a.548.548 0 0 0 .405-.158.547.547 0 0 0 .158-.404V5.874H8.969a.814.814 0 0 1-.598-.246.814.814 0 0 1-.246-.598V1.375H1.937a.548.548 0 0 0-.404.158.547.547 0 0 0-.158.405v14.624c0 .165.053.3.158.405.106.105.24.158.404.158h10.125zm-5.94-2.707a.514.514 0 0 1-.317.105.38.38 0 0 1-.282-.105l-2.39-2.39a.38.38 0 0 1-.106-.282c0-.117.035-.223.106-.316l.316-.282a.334.334 0 0 1 .281-.14c.118 0 .223.047.317.14l1.758 1.758 4.148-4.113c.094-.07.2-.105.317-.105.117 0 .21.046.28.14l.317.281c.07.094.106.2.106.317a.38.38 0 0 1-.106.281l-4.746 4.711z" fill="#252525" fill-rule="evenodd"/></svg>
