<svg width="22" height="19" viewBox="0 0 22 19" xmlns="http://www.w3.org/2000/svg"><path d="M17.187.25c.141 0 .258.07.352.211l3.516 5.73c.117.164.105.329-.036.493l-9.703 11.425c-.07.094-.175.141-.316.141-.14 0-.246-.047-.316-.14L.98 6.683C.84 6.52.828 6.355.945 6.19L4.461.461c.094-.14.21-.211.351-.211h12.375zm-.492 1.266H14.41l1.969 4.359h2.918l-2.602-4.36zm-3.691 0H8.996L6.992 5.875h8.016l-2.004-4.36zm-7.7 0l-2.6 4.359H5.62l1.969-4.36H5.305zM3.02 7l5.449 6.75L5.586 7H3.02zm3.937 0L11 16.281 15.043 7H6.957zm6.574 6.75L18.981 7h-2.567l-2.883 6.75z" fill="#252525" fill-rule="evenodd"/></svg>
