<?xml version="1.0" encoding="UTF-8"?>
<svg width="14px" height="14px" viewBox="0 0 14 14" version="1.1" xmlns="http://www.w3.org/2000/svg" xmlns:xlink="http://www.w3.org/1999/xlink">
    <!-- Generator: Sketch 46.2 (44496) - http://www.bohemiancoding.com/sketch -->
    <title>plus</title>
    <desc>Created with Sketch.</desc>
    <defs></defs>
    <g id="app" stroke="none" stroke-width="1" fill="none" fill-rule="evenodd">
        <g id="/dashboard-copy-4" transform="translate(-171.000000, -1141.000000)" fill="#3FB143">
            <path d="M184.624968,1147.12502 C184.729134,1147.12502 184.817676,1147.16147 184.890592,1147.23439 C184.963508,1147.30731 184.999967,1147.39585 184.999967,1147.50002 L184.999967,1148.50001 C184.999967,1148.60418 184.963508,1148.69272 184.890592,1148.76564 C184.817676,1148.83855 184.729134,1148.87501 184.624968,1148.87501 L178.874981,1148.87501 L178.874981,1154.625 C178.874981,1154.72916 178.838523,1154.81771 178.765606,1154.89062 C178.69269,1154.96354 178.604148,1155 178.499982,1155 L177.499985,1155 C177.395818,1155 177.307276,1154.96354 177.23436,1154.89062 C177.161444,1154.81771 177.124985,1154.72916 177.124985,1154.625 L177.124985,1148.87501 L171.374999,1148.87501 C171.270833,1148.87501 171.182291,1148.83855 171.109375,1148.76564 C171.036458,1148.69272 171,1148.60418 171,1148.50001 L171,1147.50002 C171,1147.39585 171.036458,1147.30731 171.109375,1147.23439 C171.182291,1147.16147 171.270833,1147.12502 171.374999,1147.12502 L177.124985,1147.12502 L177.124985,1141.37503 C177.124985,1141.27086 177.161444,1141.18232 177.23436,1141.10941 C177.307276,1141.03649 177.395818,1141.00003 177.499985,1141.00003 L178.499982,1141.00003 C178.604148,1141.00003 178.69269,1141.03649 178.765606,1141.10941 C178.838523,1141.18232 178.874981,1141.27086 178.874981,1141.37503 L178.874981,1147.12502 L184.624968,1147.12502 Z" id="plus"></path>
        </g>
    </g>
</svg>