<svg width="33" height="24" viewBox="0 0 33 24" xmlns="http://www.w3.org/2000/svg"><title>publish</title><path d="M27.32 10.777c1.49.305 2.726 1.05 3.707 2.235.982 1.185 1.473 2.556 1.473 4.113a6.445 6.445 0 0 1-.863 3.275 6.324 6.324 0 0 1-2.362 2.362 6.445 6.445 0 0 1-3.275.863H7.312c-1.32 0-2.539-.33-3.656-.99A7.452 7.452 0 0 1 .99 19.969 7.058 7.058 0 0 1 0 16.313c0-1.558.457-2.971 1.371-4.24.914-1.27 2.082-2.159 3.504-2.667V9c0-1.456.364-2.81 1.092-4.062a8.067 8.067 0 0 1 2.97-2.971A7.995 7.995 0 0 1 13.025.875c1.473 0 2.836.372 4.088 1.117 1.253.745 2.235 1.727 2.946 2.946a4.75 4.75 0 0 1 2.69-.813c1.355 0 2.506.474 3.454 1.422.948.948 1.422 2.099 1.422 3.453 0 .61-.102 1.202-.305 1.777zm-7.11 3.2c.238-.237.356-.525.356-.864 0-.338-.118-.626-.355-.863l-4.723-4.672a1.175 1.175 0 0 0-.863-.355c-.339 0-.626.118-.863.355L9.039 12.25a1.175 1.175 0 0 0-.355.863c0 .339.118.627.355.864l.559.558c.237.237.533.356.888.356.356 0 .652-.119.889-.356L13 12.758v6.398c0 .339.118.627.355.864s.525.355.864.355h.812c.339 0 .627-.118.863-.355.237-.237.356-.525.356-.864v-6.398l1.625 1.777c.237.237.533.356.889.356.355 0 .651-.119.888-.356l.559-.558z" fill="#FFF" fill-rule="evenodd"/></svg>