<svg width="26" height="26" viewBox="0 0 26 26" xmlns="http://www.w3.org/2000/svg"><title>settings</title><path d="M24.527 15.434c.237.135.407.338.508.609.102.27.119.542.05.812a12.426 12.426 0 0 1-2.944 5.028c-.204.203-.44.33-.711.38-.271.051-.525.01-.762-.126l-1.676-.965a8.304 8.304 0 0 1-2.133 1.219v1.93a1.186 1.186 0 0 1-.965 1.168c-1.93.473-3.859.473-5.789 0a1.186 1.186 0 0 1-.964-1.169v-1.93a8.304 8.304 0 0 1-2.133-1.218l-1.676.965c-.237.135-.49.177-.762.127a1.335 1.335 0 0 1-.71-.381 12.426 12.426 0 0 1-2.946-5.028 1.34 1.34 0 0 1 .05-.812c.102-.27.272-.474.509-.61l1.675-.964a9.788 9.788 0 0 1 0-2.438l-1.675-.965a1.135 1.135 0 0 1-.508-.609 1.34 1.34 0 0 1-.05-.812 12.426 12.426 0 0 1 2.944-5.028c.203-.203.44-.33.711-.38.271-.051.525-.01.762.126l1.676.965A8.304 8.304 0 0 1 9.14 4.11V2.18a1.186 1.186 0 0 1 .965-1.168c1.93-.473 3.859-.473 5.788 0a1.186 1.186 0 0 1 .965 1.169v1.93c.779.304 1.49.71 2.133 1.218l1.676-.965c.237-.135.49-.177.762-.127.27.051.507.178.71.381a12.426 12.426 0 0 1 2.946 5.028c.068.27.05.541-.05.812-.102.27-.272.474-.509.61l-1.675.964a9.788 9.788 0 0 1 0 2.438l1.675.965zm-3.351 5.129a11.08 11.08 0 0 0 2.234-3.86l-2.336-1.37c.17-.915.254-1.609.254-2.083 0-.474-.085-1.168-.254-2.082l2.336-1.371a11.08 11.08 0 0 0-2.234-3.86L18.84 7.31c-.711-.61-1.278-1.033-1.701-1.27-.424-.237-1.058-.508-1.905-.812V2.484a11.038 11.038 0 0 0-4.468 0v2.743c-.847.304-1.482.575-1.905.812-.423.237-.99.66-1.7 1.27L4.823 5.938A11.08 11.08 0 0 0 2.59 9.797l2.336 1.371c-.17.914-.254 1.608-.254 2.082 0 .474.084 1.168.254 2.082L2.59 16.703a11.08 11.08 0 0 0 2.234 3.86L7.16 19.19c.711.61 1.278 1.033 1.701 1.27.423.237 1.058.508 1.905.812v2.743c1.49.304 2.979.304 4.468 0v-2.743c.847-.304 1.481-.584 1.905-.837.423-.254.99-.67 1.7-1.245l2.337 1.372zM13 8.375c1.354 0 2.505.474 3.453 1.422s1.422 2.099 1.422 3.453c0 1.354-.474 2.505-1.422 3.453S14.354 18.125 13 18.125c-1.354 0-2.505-.474-3.453-1.422s-1.422-2.099-1.422-3.453c0-1.354.474-2.505 1.422-3.453S11.646 8.375 13 8.375zm0 8.125c.88 0 1.642-.322 2.285-.965.643-.643.965-1.405.965-2.285 0-.88-.322-1.642-.965-2.285C14.642 10.322 13.88 10 13 10c-.88 0-1.642.322-2.285.965-.643.643-.965 1.405-.965 2.285 0 .88.322 1.642.965 2.285.643.643 1.405.965 2.285.965z" fill="#FFF" fill-rule="evenodd"/></svg>