<svg width="16" height="12" viewBox="0 0 16 12" xmlns="http://www.w3.org/2000/svg"><path d="M3 12a2.893 2.893 0 0 1-2.125-.875A2.893 2.893 0 0 1 0 9V3C0 2.167.292 1.458.875.875A2.893 2.893 0 0 1 3 0h2.625c.104 0 .193.036.266.11.073.072.109.16.109.265v1.25a.362.362 0 0 1-.11.266.362.362 0 0 1-.265.109H3a.961.961 0 0 0-.703.297A.961.961 0 0 0 2 3v6c0 .27.099.505.297.703A.961.961 0 0 0 3 10h2.625c.104 0 .193.036.266.11.073.072.109.16.109.265v1.25a.362.362 0 0 1-.11.266.362.362 0 0 1-.265.109H3zm6.312-9.469a.697.697 0 0 1-.25-.547c0-.218.073-.4.22-.546L9.968.75A.723.723 0 0 1 10.5.531c.208 0 .385.073.531.219l4.75 4.719A.723.723 0 0 1 16 6a.723.723 0 0 1-.219.531l-4.75 4.719a.723.723 0 0 1-.531.219.723.723 0 0 1-.531-.219l-.688-.688a.742.742 0 0 1-.219-.546c0-.22.084-.401.25-.547L11.75 7.25h-6a.723.723 0 0 1-.531-.219A.723.723 0 0 1 5 6.5v-1c0-.208.073-.385.219-.531a.723.723 0 0 1 .531-.219h6L9.312 2.531z" fill="#6643AD" fill-rule="evenodd"/></svg>
