<svg height="24" viewBox="0 0 26 24" width="26" xmlns="http://www.w3.org/2000/svg"><path d="m3.948 15.356c0-1.574-1.125-2.36-3.377-2.36v-2.426c1.143 0 1.991-.192 2.546-.577.554-.385.831-.972.831-1.759v-3.948c0-1.32.46-2.291 1.378-2.913.918-.623 2.294-.934 4.132-.934v2.311c-.965.042-1.665.24-2.101.59-.436.352-.654.874-.654 1.568v3.77c0 1.685-.969 2.692-2.907 3.022v.153c1.938.304 2.907 1.307 2.907 3.008v3.796c0 .694.216 1.219.648 1.574.431.356 1.134.542 2.107.559v2.323c-1.955-.017-3.362-.349-4.221-.996-.86-.648-1.289-1.695-1.289-3.142zm18.726 3.898c0 1.32-.421 2.29-1.263 2.907-.842.618-2.19.935-4.044.952v-2.323c.804-.008 1.43-.171 1.88-.489.448-.317.672-.865.672-1.644v-3.326c0-1.024.224-1.815.673-2.374.448-.559 1.193-.927 2.234-1.104v-.153c-1.938-.33-2.907-1.337-2.907-3.021v-3.77c0-.695-.193-1.217-.578-1.569-.385-.35-1.043-.548-1.974-.59v-2.31c1.888 0 3.244.323 4.069.97.825.648 1.238 1.708 1.238 3.18v3.644c0 .847.269 1.448.806 1.803.537.356 1.335.533 2.393.533v2.425c-1.041 0-1.834.18-2.38.54s-.82.967-.82 1.821v3.898z" fill="#fff" fill-rule="evenodd"/></svg>