<?xml version="1.0" encoding="UTF-8"?>
<svg width="14px" height="16px" viewBox="0 0 14 16" version="1.1" xmlns="http://www.w3.org/2000/svg" xmlns:xlink="http://www.w3.org/1999/xlink">
    <!-- Generator: Sketch 46.2 (44496) - http://www.bohemiancoding.com/sketch -->
    <title>trash</title>
    <desc>Created with Sketch.</desc>
    <defs></defs>
    <g id="app" stroke="none" stroke-width="1" fill="none" fill-rule="evenodd">
        <g id="/dashboard-copy-4" transform="translate(-283.000000, -1137.000000)" fill="#F36167">
            <path d="M283,1139.62503 C283,1139.72919 283.036458,1139.81774 283.109375,1139.89065 C283.182291,1139.96357 283.270833,1140.00003 283.374999,1140.00003 L296.624968,1140.00003 C296.729134,1140.00003 296.817676,1139.96357 296.890592,1139.89065 C296.963508,1139.81774 296.999967,1139.72919 296.999967,1139.62503 L296.999967,1138.75003 C296.999967,1138.5417 296.92705,1138.36461 296.781217,1138.21878 C296.635384,1138.07295 296.458301,1138.00003 296.249968,1138.00003 L292.749977,1138.00003 L292.468727,1137.40628 C292.406228,1137.28128 292.312478,1137.18232 292.187478,1137.10941 C292.062478,1137.03649 291.927062,1137.00003 291.781229,1137.00003 L288.218738,1137.00003 C288.072904,1137.00003 287.937488,1137.03649 287.812489,1137.10941 C287.687489,1137.18232 287.593739,1137.28128 287.531239,1137.40628 L287.24999,1138.00003 L283.749998,1138.00003 C283.541665,1138.00003 283.364583,1138.07295 283.218749,1138.21878 C283.072916,1138.36461 283,1138.5417 283,1138.75003 L283,1139.62503 Z M295.968719,1141.40627 C295.968719,1141.30211 295.932261,1141.20836 295.859344,1141.12502 C295.786428,1141.04169 295.697886,1141.00002 295.59372,1141.00002 L284.406247,1141.00002 C284.30208,1141.00002 284.213539,1141.04169 284.140622,1141.12502 C284.067706,1141.20836 284.031248,1141.30211 284.031248,1141.40627 L284.656246,1151.59375 C284.677079,1151.98958 284.833329,1152.32291 285.124995,1152.59375 C285.416661,1152.86458 285.76041,1153 286.156242,1153 L293.843724,1153 C294.239557,1153 294.583306,1152.86458 294.874972,1152.59375 C295.166638,1152.32291 295.322887,1151.98958 295.343721,1151.59375 L295.968719,1141.40627 Z" id="trash"></path>
        </g>
    </g>
</svg>