<svg width="18" height="19" viewBox="0 0 18 19" xmlns="http://www.w3.org/2000/svg"><path d="M15.152 11.254c.985.281 1.735.844 2.25 1.687.399.657.598 1.348.598 2.075V16c0 .61-.223 1.137-.668 1.582-.445.445-.973.668-1.582.668H2.25c-.61 0-1.137-.223-1.582-.668C.223 17.137 0 16.609 0 16v-.984c0-.727.2-1.43.598-2.11.515-.82 1.265-1.37 2.25-1.652l1.722-.492a6.046 6.046 0 0 1-1.476-2.496 6.187 6.187 0 0 1-.282-1.828 6.09 6.09 0 0 1 .827-3.112c.55-.949 1.3-1.699 2.25-2.25A6.09 6.09 0 0 1 9 .25a6.09 6.09 0 0 1 3.111.826c.95.551 1.7 1.301 2.25 2.25.551.95.826 1.987.826 3.112 0 .609-.093 1.218-.28 1.828a6.046 6.046 0 0 1-1.477 2.496l1.722.492zM9 1.375c-.914 0-1.758.229-2.531.686a5.16 5.16 0 0 0-1.846 1.845 4.886 4.886 0 0 0-.686 2.532c0 .914.229 1.757.686 2.53a5.16 5.16 0 0 0 1.846 1.846A4.886 4.886 0 0 0 9 11.5c.914 0 1.758-.228 2.531-.686a5.16 5.16 0 0 0 1.846-1.845 4.886 4.886 0 0 0 .685-2.531c0-.915-.228-1.758-.685-2.532a5.16 5.16 0 0 0-1.846-1.845A4.886 4.886 0 0 0 9 1.375zM16.875 16v-.984c0-.61-.188-1.166-.563-1.67a2.83 2.83 0 0 0-1.476-1.037l-2.461-.704A6.01 6.01 0 0 1 9 12.625a6.01 6.01 0 0 1-3.375-1.02l-2.46.704a2.83 2.83 0 0 0-1.478 1.037 2.733 2.733 0 0 0-.562 1.67V16c0 .305.111.568.334.791.223.223.486.334.791.334h13.5c.305 0 .568-.111.791-.334.223-.223.334-.486.334-.791z" fill="#252525" fill-rule="evenodd"/></svg>
