<?xml version="1.0" encoding="UTF-8"?>
<svg width="1440px" height="112px" viewBox="0 0 1440 112" version="1.1" xmlns="http://www.w3.org/2000/svg" xmlns:xlink="http://www.w3.org/1999/xlink">
    <!-- Generator: Sketch 46.2 (44496) - http://www.bohemiancoding.com/sketch -->
    <title>header-bottom</title>
    <desc>Created with Sketch.</desc>
    <defs></defs>
    <g id="marketing-site" stroke="none" stroke-width="1" fill="none" fill-rule="evenodd">
        <g id="Desktop-HD" transform="translate(0.000000, -494.000000)">
            <g id="header-bottom" transform="translate(0.000000, 494.000000)">
                <path d="M1.13686838e-13,85.1395247 C87.3958333,61.3999011 227.308594,47.2440179 419.738281,42.671875 C708.382813,35.8136607 802.502695,63.5037 1032.52344,64.125 C1185.8706,64.5392 1321.69612,43.2957104 1440,0.39453125 L1440,98.546875 L1.13686838e-13,98.546875 L1.13686838e-13,85.1395247 Z" id="Rectangle-2-Copy" fill="#5047AF"></path>
                <path d="M1.13686838e-13,98.1395247 C86.1223958,82.0762107 225.398438,71.7584822 417.828125,67.1863393 C706.472656,60.328125 795.670664,97.5182247 1025.69141,98.1395247 C1179.03857,98.5537247 1317.14143,82.5840394 1440,50.2304687 L1440,111.546875 L1.13686838e-13,111.546875 L1.13686838e-13,98.1395247 Z" id="Rectangle-2" fill="#FFFFFF"></path>
            </g>
        </g>
    </g>
</svg>