<?xml version="1.0" encoding="UTF-8"?>
<svg width="48px" height="34px" viewBox="0 0 48 34" version="1.1" xmlns="http://www.w3.org/2000/svg" xmlns:xlink="http://www.w3.org/1999/xlink">
    <!-- Generator: Sketch 46.2 (44496) - http://www.bohemiancoding.com/sketch -->
    <title>logo</title>
    <desc>Created with Sketch.</desc>
    <defs>
        <linearGradient x1="0%" y1="15.1089619%" x2="100%" y2="15.1089624%" id="linearGradient-1">
            <stop stop-color="#000000" stop-opacity="0.303725091" offset="0%"></stop>
            <stop stop-color="#000000" stop-opacity="0.295601223" offset="49.3144133%"></stop>
            <stop stop-color="#000000" stop-opacity="0.197180707" offset="50.5141901%"></stop>
            <stop stop-color="#000000" stop-opacity="0.19721016" offset="52.6387117%"></stop>
            <stop stop-color="#000000" stop-opacity="0.197860054" offset="100%"></stop>
        </linearGradient>
    </defs>
    <g id="marketing-site" stroke="none" stroke-width="1" fill="none" fill-rule="evenodd">
        <g id="Desktop-HD" transform="translate(-100.000000, -29.000000)">
            <g id="logo" transform="translate(100.000000, 29.000000)">
                <polygon id="Rectangle" fill="#E5E5E5" points="24 8.81632653 48 20.3370729 48 22.2865441 24 33.3061224 0 22.2865441 4.99600361e-16 20.3370729"></polygon>
                <polygon id="Rectangle-Copy" fill="url(#linearGradient-1)" points="24 31.1396735 48 20.0816327 48 22.0695009 24 33.3061224 0 22.0695009 4.99600361e-16 20.0816327"></polygon>
                <polygon id="Rectangle" fill="#FFFFFF" points="24 0 48 11.5207464 48 13.4702176 24 24.4897959 0 13.4702176 4.99600361e-16 11.5207464"></polygon>
                <polygon id="Rectangle-Copy" fill="url(#linearGradient-1)" points="24 22.8131429 48 11.755102 48 13.7429703 24 24.9795918 0 13.7429703 4.99600361e-16 11.755102"></polygon>
            </g>
        </g>
    </g>
</svg>