<?xml version="1.0" encoding="UTF-8"?>
<svg width="212px" height="70px" viewBox="0 0 212 70" version="1.1" xmlns="http://www.w3.org/2000/svg" xmlns:xlink="http://www.w3.org/1999/xlink">
    <!-- Generator: Sketch 46.2 (44496) - http://www.bohemiancoding.com/sketch -->
    <title>powered-by</title>
    <desc>Created with Sketch.</desc>
    <defs>
        <path d="M168.635986,45.4126611 L188.792985,35.7137454 L194.271972,37.9819832 L194.271972,40.0891323 L168.635986,52 L143,40.0891323 L143,37.9819832 L148.299221,35.7137454 L168.635986,45.4126611 Z M168.635986,16 L194.271972,28.4525715 L194.271972,30.5597205 L168.635986,42.4705882 L143,30.5597205 L143,28.4525715 L168.635986,16 Z" id="path-1"></path>
        <filter x="-29.3%" y="-41.7%" width="158.5%" height="183.3%" filterUnits="objectBoundingBox" id="filter-2">
            <feOffset dx="0" dy="0" in="SourceAlpha" result="shadowOffsetOuter1"></feOffset>
            <feGaussianBlur stdDeviation="5" in="shadowOffsetOuter1" result="shadowBlurOuter1"></feGaussianBlur>
            <feColorMatrix values="0 0 0 0 1   0 0 0 0 1   0 0 0 0 1  0 0 0 0.601590806 0" type="matrix" in="shadowBlurOuter1"></feColorMatrix>
        </filter>
    </defs>
    <g id="app" stroke="none" stroke-width="1" fill="none" fill-rule="evenodd">
        <g id="/dashboard-copy-4" transform="translate(-297.000000, -1216.000000)">
            <g id="powered-by" transform="translate(297.000000, 1216.000000)">
                <rect id="Rectangle-4" fill="#6643AD" x="0" y="0" width="212" height="70" rx="4"></rect>
                <path d="M25.609375,18.9296875 C25.609375,19.7968793 25.3134795,20.4638649 24.7216797,20.9306641 C24.1298799,21.3974633 23.2832086,21.6308594 22.1816406,21.6308594 L21.1738281,21.6308594 L21.1738281,25 L20.1777344,25 L20.1777344,16.4335938 L22.3984375,16.4335938 C24.5390732,16.4335938 25.609375,17.2656167 25.609375,18.9296875 Z M21.1738281,20.7753906 L22.0703125,20.7753906 C22.9531294,20.7753906 23.5917949,20.6328139 23.9863281,20.3476562 C24.3808613,20.0624986 24.578125,19.6054719 24.578125,18.9765625 C24.578125,18.4101534 24.39258,17.9882826 24.0214844,17.7109375 C23.6503888,17.4335924 23.0722696,17.2949219 22.2871094,17.2949219 L21.1738281,17.2949219 L21.1738281,20.7753906 Z M34.8378906,20.7050781 C34.8378906,22.0761787 34.4912144,23.1542929 33.7978516,23.9394531 C33.1044887,24.7246133 32.1406312,25.1171875 30.90625,25.1171875 C29.6445249,25.1171875 28.6709019,24.7314492 27.9853516,23.9599609 C27.2998013,23.1884727 26.9570312,22.0996164 26.9570312,20.6933594 C26.9570312,19.2988212 27.3007778,18.2177773 27.9882812,17.4501953 C28.6757847,16.6826133 29.6523374,16.2988281 30.9179688,16.2988281 C32.1484437,16.2988281 33.1093715,16.6894492 33.8007812,17.4707031 C34.492191,18.251957 34.8378906,19.3300712 34.8378906,20.7050781 Z M28.0117188,20.7050781 C28.0117188,21.8652402 28.2587866,22.7451142 28.7529297,23.3447266 C29.2470728,23.9443389 29.964839,24.2441406 30.90625,24.2441406 C31.8554735,24.2441406 32.5722632,23.9453155 33.0566406,23.3476562 C33.541018,22.749997 33.7832031,21.8691464 33.7832031,20.7050781 C33.7832031,19.5527286 33.5419946,18.6787139 33.0595703,18.0830078 C32.577146,17.4873017 31.863286,17.1894531 30.9179688,17.1894531 C29.9687453,17.1894531 29.2470728,17.4892548 28.7529297,18.0888672 C28.2587866,18.6884796 28.0117188,19.5605412 28.0117188,20.7050781 Z M44.1074219,25 L43.1230469,25 L41.3945312,19.2636719 C41.3124996,19.0097644 41.2207036,18.6894551 41.1191406,18.3027344 C41.0175776,17.9160137 40.9648438,17.6835941 40.9609375,17.6054688 C40.8749996,18.1210963 40.7382822,18.6855438 40.5507812,19.2988281 L38.875,25 L37.890625,25 L35.6113281,16.4335938 L36.6660156,16.4335938 L38.0195312,21.7246094 C38.2070322,22.4668006 38.3437496,23.1386689 38.4296875,23.7402344 C38.5351568,23.0253871 38.6914052,22.3261753 38.8984375,21.6425781 L40.4335938,16.4335938 L41.4882812,16.4335938 L43.0996094,21.6894531 C43.2871103,22.2949249 43.4453119,22.9785118 43.5742188,23.7402344 C43.6484379,23.1855441 43.7890615,22.5097696 43.9960938,21.7128906 L45.34375,16.4335938 L46.3984375,16.4335938 L44.1074219,25 Z M52.515625,25 L47.7402344,25 L47.7402344,16.4335938 L52.515625,16.4335938 L52.515625,17.3183594 L48.7363281,17.3183594 L48.7363281,20.078125 L52.2871094,20.078125 L52.2871094,20.9570312 L48.7363281,20.9570312 L48.7363281,24.109375 L52.515625,24.109375 L52.515625,25 Z M55.4101562,21.4375 L55.4101562,25 L54.4140625,25 L54.4140625,16.4335938 L56.7636719,16.4335938 C57.8144584,16.4335938 58.5908178,16.6347636 59.0927734,17.0371094 C59.5947291,17.4394551 59.8457031,18.0449178 59.8457031,18.8535156 C59.8457031,19.9863338 59.2714901,20.7519511 58.1230469,21.1503906 L60.4492188,25 L59.2714844,25 L57.1972656,21.4375 L55.4101562,21.4375 Z M55.4101562,20.5820312 L56.7753906,20.5820312 C57.4785191,20.5820312 57.994139,20.4423842 58.3222656,20.1630859 C58.6503923,19.8837877 58.8144531,19.4648465 58.8144531,18.90625 C58.8144531,18.3398409 58.6474626,17.9316419 58.3134766,17.6816406 C57.9794905,17.4316394 57.4433631,17.3066406 56.7050781,17.3066406 L55.4101562,17.3066406 L55.4101562,20.5820312 Z M66.6074219,25 L61.8320312,25 L61.8320312,16.4335938 L66.6074219,16.4335938 L66.6074219,17.3183594 L62.828125,17.3183594 L62.828125,20.078125 L66.3789062,20.078125 L66.3789062,20.9570312 L62.828125,20.9570312 L62.828125,24.109375 L66.6074219,24.109375 L66.6074219,25 Z M75.34375,20.6347656 C75.34375,22.0488352 74.9599648,23.1298791 74.1923828,23.8779297 C73.4248008,24.6259803 72.3203197,25 70.8789062,25 L68.5058594,25 L68.5058594,16.4335938 L71.1308594,16.4335938 C72.4628973,16.4335938 73.4980432,16.8027307 74.2363281,17.5410156 C74.9746131,18.2793006 75.34375,19.3105403 75.34375,20.6347656 Z M74.2890625,20.6699219 C74.2890625,19.5527288 74.0087919,18.7109403 73.4482422,18.1445312 C72.8876925,17.5781222 72.054693,17.2949219 70.9492188,17.2949219 L69.5019531,17.2949219 L69.5019531,24.1386719 L70.7148438,24.1386719 C71.9023497,24.1386719 72.7949189,23.8466826 73.3925781,23.2626953 C73.9902374,22.678708 74.2890625,21.8144588 74.2890625,20.6699219 Z M80.3710938,16.4335938 L82.7910156,16.4335938 C83.9277401,16.4335938 84.7499975,16.6035139 85.2578125,16.9433594 C85.7656275,17.2832048 86.0195312,17.8203088 86.0195312,18.5546875 C86.0195312,19.0625025 85.8779311,19.4814437 85.5947266,19.8115234 C85.311522,20.1416032 84.8984402,20.3554683 84.3554688,20.453125 L84.3554688,20.5117188 C85.6562565,20.7343761 86.3066406,21.417963 86.3066406,22.5625 C86.3066406,23.3281288 86.0478542,23.9257791 85.5302734,24.3554688 C85.0126927,24.7851584 84.2890671,25 83.359375,25 L80.3710938,25 L80.3710938,16.4335938 Z M81.3671875,20.1015625 L83.0078125,20.1015625 C83.710941,20.1015625 84.2167953,19.991212 84.5253906,19.7705078 C84.8339859,19.5498036 84.9882812,19.177737 84.9882812,18.6542969 C84.9882812,18.1738257 84.816408,17.8271495 84.4726562,17.6142578 C84.1289045,17.4013661 83.582035,17.2949219 82.8320312,17.2949219 L81.3671875,17.2949219 L81.3671875,20.1015625 Z M81.3671875,20.9453125 L81.3671875,24.1503906 L83.1542969,24.1503906 C83.8457066,24.1503906 84.3662092,24.0166029 84.7158203,23.7490234 C85.0654314,23.481444 85.2402344,23.0625029 85.2402344,22.4921875 C85.2402344,21.9609348 85.0615252,21.5703138 84.7041016,21.3203125 C84.3466779,21.0703112 83.802738,20.9453125 83.0722656,20.9453125 L81.3671875,20.9453125 Z M90.2089844,20.7167969 L92.4941406,16.4335938 L93.5722656,16.4335938 L90.7128906,21.6777344 L90.7128906,25 L89.7050781,25 L89.7050781,21.7246094 L86.8515625,16.4335938 L87.9414062,16.4335938 L90.2089844,20.7167969 Z" id="Powered-by" fill="#FFFFFF"></path>
                <path d="M30.5234375,49 L20.3515625,49 L20.3515625,31.8671875 L30.5234375,31.8671875 L30.5234375,35.5820312 L24.9804688,35.5820312 L24.9804688,38.2773438 L30.1132812,38.2773438 L30.1132812,41.9921875 L24.9804688,41.9921875 L24.9804688,45.2265625 L30.5234375,45.2265625 L30.5234375,49 Z M37.3789062,49.234375 C36.433589,49.234375 35.6074254,48.9648464 34.9003906,48.4257812 C34.1933558,47.8867161 33.6464863,47.0937552 33.2597656,46.046875 C32.8730449,44.9999948 32.6796875,43.7773507 32.6796875,42.3789062 C32.6796875,40.2226455 33.1132769,38.5351623 33.9804688,37.3164062 C34.8476606,36.0976502 36.0390549,35.4882812 37.5546875,35.4882812 C38.2968787,35.4882812 38.9472628,35.6367173 39.5058594,35.9335938 C40.0644559,36.2304702 40.5742164,36.7304652 41.0351562,37.4335938 L41.1289062,37.4335938 C40.980468,36.3945261 40.90625,35.3554739 40.90625,34.3164062 L40.90625,30.765625 L45.5234375,30.765625 L45.5234375,49 L42.0664062,49 L41.0820312,47.3242188 L40.90625,47.3242188 C40.1171836,48.5976626 38.9414141,49.234375 37.3789062,49.234375 Z M39.2539062,45.6132812 C39.9882849,45.6132812 40.5058579,45.3828148 40.8066406,44.921875 C41.1074234,44.4609352 41.2695311,43.7500048 41.2929688,42.7890625 L41.2929688,42.4257812 C41.2929688,41.2539004 41.1250017,40.4199244 40.7890625,39.9238281 C40.4531233,39.4277319 39.9257848,39.1796875 39.2070312,39.1796875 C38.6054657,39.1796875 38.1386735,39.4628878 37.8066406,40.0292969 C37.4746077,40.595706 37.3085938,41.4023385 37.3085938,42.4492188 C37.3085938,43.4804739 37.4765608,44.2656223 37.8125,44.8046875 C38.1484392,45.3437527 38.6289031,45.6132812 39.2539062,45.6132812 Z M53.2929688,49 L48.7109375,49 L48.7109375,35.7226562 L53.2929688,35.7226562 L53.2929688,49 Z M48.59375,32.4179688 C48.59375,31.7304653 48.7851543,31.2187517 49.1679688,30.8828125 C49.5507832,30.5468733 50.1679645,30.3789062 51.0195312,30.3789062 C51.871098,30.3789062 52.4921855,30.5507795 52.8828125,30.8945312 C53.2734395,31.238283 53.46875,31.7460904 53.46875,32.4179688 C53.46875,33.7617255 52.6523519,34.4335938 51.0195312,34.4335938 C49.4023357,34.4335938 48.59375,33.7617255 48.59375,32.4179688 Z M62.9960938,45.6132812 C63.6132843,45.6132812 64.3515582,45.460939 65.2109375,45.15625 L65.2109375,48.4960938 C64.5937469,48.7617201 64.0058622,48.9511713 63.4472656,49.0644531 C62.8886691,49.1777349 62.2343787,49.234375 61.484375,49.234375 C59.9453048,49.234375 58.8359409,48.8574256 58.15625,48.1035156 C57.4765591,47.3496056 57.1367188,46.1914141 57.1367188,44.6289062 L57.1367188,39.15625 L55.53125,39.15625 L55.53125,37.2929688 L57.5703125,35.8515625 L58.7539062,33.0625 L61.7539062,33.0625 L61.7539062,35.7226562 L65.0117188,35.7226562 L65.0117188,39.15625 L61.7539062,39.15625 L61.7539062,44.3242188 C61.7539062,45.183598 62.1679646,45.6132812 62.9960938,45.6132812 Z M72.1132812,49 L67.53125,49 L67.53125,30.765625 L72.1132812,30.765625 L72.1132812,49 Z M83.9492188,49 L83.0703125,47.2421875 L82.9765625,47.2421875 C82.3593719,48.0078163 81.730472,48.5312486 81.0898438,48.8125 C80.4492155,49.0937514 79.6210988,49.234375 78.6054688,49.234375 C77.3554625,49.234375 76.3710973,48.8593787 75.6523438,48.109375 C74.9335902,47.3593713 74.5742188,46.3046943 74.5742188,44.9453125 C74.5742188,43.5312429 75.0664013,42.4785191 76.0507812,41.7871094 C77.0351612,41.0956997 78.4609282,40.7070317 80.328125,40.6210938 L82.5429688,40.5507812 L82.5429688,40.3632812 C82.5429688,39.2695258 82.0039116,38.7226562 80.9257812,38.7226562 C79.9570264,38.7226562 78.72657,39.050778 77.234375,39.7070312 L75.9101562,36.6835938 C77.457039,35.8867148 79.4101445,35.4882812 81.7695312,35.4882812 C83.4726648,35.4882812 84.791011,35.910152 85.7246094,36.7539062 C86.6582078,37.5976605 87.125,38.7773362 87.125,40.2929688 L87.125,49 L83.9492188,49 Z M80.5507812,46 C81.1054715,46 81.5800762,45.8242205 81.9746094,45.4726562 C82.3691426,45.121092 82.5664062,44.6640653 82.5664062,44.1015625 L82.5664062,43.0703125 L81.5117188,43.1171875 C80.0038987,43.1718753 79.25,43.7265572 79.25,44.78125 C79.25,45.5937541 79.6835894,46 80.5507812,46 Z M88.6367188,35.7226562 L93.4648438,35.7226562 L95.7148438,43.3398438 C95.8242193,43.7382832 95.8984373,44.2187472 95.9375,44.78125 L96.03125,44.78125 C96.0937503,44.2421848 96.1874994,43.7695333 96.3125,43.3632812 L98.6210938,35.7226562 L103.296875,35.7226562 L98.046875,49.84375 C97.3749966,51.640634 96.548833,52.9101525 95.5683594,53.6523438 C94.5878857,54.394535 93.3086016,54.765625 91.7304688,54.765625 C91.1210907,54.765625 90.496097,54.6992194 89.8554688,54.5664062 L89.8554688,50.96875 C90.2695333,51.0625005 90.7421848,51.109375 91.2734375,51.109375 C91.6796895,51.109375 92.0351547,51.0312508 92.3398438,50.875 C92.6445328,50.7187492 92.9101551,50.4980483 93.1367188,50.2128906 C93.3632824,49.9277329 93.6054675,49.4609407 93.8632812,48.8125 L88.6367188,35.7226562 Z M111.289062,49.234375 C109.078114,49.234375 107.361334,48.6464903 106.138672,47.4707031 C104.91601,46.294916 104.304688,44.6211046 104.304688,42.4492188 C104.304688,40.20702 104.871088,38.4863341 106.003906,37.2871094 C107.136724,36.0878846 108.753896,35.4882812 110.855469,35.4882812 C112.855479,35.4882812 114.400385,36.0097604 115.490234,37.0527344 C116.580084,38.0957083 117.125,39.5976464 117.125,41.5585938 L117.125,43.5976562 L108.933594,43.5976562 C108.964844,44.3398475 109.236326,44.9218729 109.748047,45.34375 C110.259768,45.7656271 110.957027,45.9765625 111.839844,45.9765625 C112.644535,45.9765625 113.384762,45.9003914 114.060547,45.7480469 C114.736332,45.5957024 115.468746,45.3359393 116.257812,44.96875 L116.257812,48.2617188 C115.539059,48.6289081 114.796879,48.8828118 114.03125,49.0234375 C113.265621,49.1640632 112.351568,49.234375 111.289062,49.234375 Z M111.019531,38.6054688 C110.480466,38.6054688 110.029299,38.7753889 109.666016,39.1152344 C109.302733,39.4550798 109.089844,39.9882776 109.027344,40.7148438 L112.964844,40.7148438 C112.949219,40.0742155 112.76758,39.5625019 112.419922,39.1796875 C112.072264,38.7968731 111.605472,38.6054688 111.019531,38.6054688 Z M127.730469,35.4882812 C128.128908,35.4882812 128.507811,35.5195309 128.867188,35.5820312 L129.125,35.6289062 L128.714844,39.953125 C128.339842,39.8593745 127.820316,39.8125 127.15625,39.8125 C126.156245,39.8125 125.42969,40.0410133 124.976562,40.4980469 C124.523435,40.9550804 124.296875,41.613277 124.296875,42.4726562 L124.296875,49 L119.714844,49 L119.714844,35.7226562 L123.125,35.7226562 L123.839844,37.84375 L124.0625,37.84375 C124.445314,37.1406215 124.978512,36.5722678 125.662109,36.1386719 C126.345707,35.705076 127.035153,35.4882812 127.730469,35.4882812 Z" id="Editlayer" fill="#FFFFFF"></path>
                <g id="Logo">
                    <use fill="black" fill-opacity="1" filter="url(#filter-2)" xlink:href="#path-1"></use>
                    <use fill="#FFFFFF" fill-rule="evenodd" xlink:href="#path-1"></use>
                </g>
            </g>
        </g>
    </g>
</svg>