<svg width="23" height="22" viewBox="0 0 23 22" xmlns="http://www.w3.org/2000/svg"><title>check-circle-o - FontAwesome</title><path d="M17.257 9.913l-5.887 5.888a.884.884 0 0 1-1.256 0l-4.101-4.102a.884.884 0 0 1 0-1.255L7.436 9.02a.884.884 0 0 1 1.255 0l2.05 2.05 3.837-3.836a.884.884 0 0 1 1.256 0l1.423 1.423a.884.884 0 0 1 0 1.255zm1.967 1.158c0-4.185-3.404-7.589-7.59-7.589-4.184 0-7.589 3.404-7.589 7.59 0 4.185 3.405 7.589 7.59 7.589 4.185 0 7.59-3.404 7.59-7.59zm3.125 0c0 5.916-4.799 10.715-10.714 10.715S.92 16.986.92 11.07 5.72.357 11.635.357s10.714 4.8 10.714 10.714z" fill="#FFF" fill-rule="evenodd"/></svg>