<svg height="21" viewBox="0 0 23 21" width="23" xmlns="http://www.w3.org/2000/svg"><path d="m7.217 10.857a3.95 3.95 0 0 0 -2.958 1.429h-1.496c-1.116 0-2.165-.536-2.165-1.775 0-.904-.033-3.94 1.384-3.94.235 0 1.395.95 2.902.95.513 0 1.004-.09 1.484-.258a5.455 5.455 0 0 0 -.055.737c0 1.016.323 2.02.904 2.857zm11.953 7.11c0 1.808-1.195 2.89-2.98 2.89h-9.755c-1.785 0-2.98-1.082-2.98-2.89 0-2.523.592-6.396 3.862-6.396.38 0 1.763 1.552 3.996 1.552 2.232 0 3.616-1.552 3.995-1.552 3.27 0 3.862 3.873 3.862 6.396zm-11.43-14.253a2.863 2.863 0 0 1 -2.857 2.857 2.863 2.863 0 0 1 -2.857-2.857 2.863 2.863 0 0 1 2.858-2.857 2.863 2.863 0 0 1 2.856 2.857zm7.858 4.286a4.287 4.287 0 0 1 -8.571 0 4.287 4.287 0 0 1 8.571 0zm6.429 2.511c0 1.239-1.05 1.775-2.165 1.775h-1.496a3.95 3.95 0 0 0 -2.958-1.429c.58-.837.905-1.841.905-2.857 0-.246-.023-.491-.056-.737.48.168.97.257 1.484.257 1.507 0 2.668-.949 2.902-.949 1.417 0 1.384 3.036 1.384 3.94zm-1.429-6.797a2.863 2.863 0 0 1 -2.857 2.857 2.863 2.863 0 0 1 -2.857-2.857 2.863 2.863 0 0 1 2.856-2.857 2.863 2.863 0 0 1 2.857 2.857z" fill="#fff" fill-rule="evenodd"/></svg>