<?xml version="1.0" encoding="UTF-8"?>
<svg width="22px" height="22px" viewBox="0 0 22 22" version="1.1" xmlns="http://www.w3.org/2000/svg" xmlns:xlink="http://www.w3.org/1999/xlink">
    <!-- Generator: Sketch 46.2 (44496) - http://www.bohemiancoding.com/sketch -->
    <title></title>
    <desc>Created with Sketch.</desc>
    <defs></defs>
    <g id="app" stroke="none" stroke-width="1" fill="none" fill-rule="evenodd">
        <g id="/edit" transform="translate(-29.000000, -24.000000)" fill="#FFFFFF">
            <g id="Menu">
                <g id="Published" transform="translate(0.000000, 24.000000)">
                    <path d="M50.5761909,11.0912097 C50.5761909,5.78928993 46.687302,1.40360058 41.6317465,0.646183478 L41.6317465,3.43152379 C45.1803576,4.15229168 47.8539687,7.31634055 47.8539687,11.0912097 C47.8539687,15.4036006 44.3661215,18.9097088 40.0761909,18.9097088 C35.7862603,18.9097088 32.2984131,15.4036006 32.2984131,11.0912097 C32.2984131,7.31634055 34.9720242,4.15229168 38.5206353,3.43152379 L38.5206353,0.646183478 C33.4650798,1.40360058 29.5761909,5.78928993 29.5761909,11.0912097 C29.5761909,16.9184348 34.2793159,21.6461835 40.0761909,21.6461835 C45.8730659,21.6461835 50.5761909,16.9184348 50.5761909,11.0912097 Z" id=""></path>
                </g>
            </g>
        </g>
    </g>
</svg>