<?xml version="1.0" encoding="UTF-8"?>
<svg width="23px" height="18px" viewBox="0 0 23 18" version="1.1" xmlns="http://www.w3.org/2000/svg" xmlns:xlink="http://www.w3.org/1999/xlink">
    <!-- Generator: Sketch 46.2 (44496) - http://www.bohemiancoding.com/sketch -->
    <title>home - FontAwesome</title>
    <desc>Created with Sketch.</desc>
    <defs></defs>
    <g id="app" stroke="none" stroke-width="1" fill="none" fill-rule="evenodd">
        <g id="/schema" transform="translate(-470.000000, -17.000000)" fill="#1D7CE2">
            <g id="Main" transform="translate(460.000000, 17.000000)">
                <path d="M29.6428806,10.4107052 L29.6428806,17.1071418 C29.6428806,17.5954236 29.2383042,18 28.7500224,18 L23.3928731,18 L23.3928731,12.6428508 L19.8214403,12.6428508 L19.8214403,18 L14.464291,18 C13.9760092,18 13.5714328,17.5954236 13.5714328,17.1071418 L13.5714328,10.4107052 C13.5714328,10.3828034 13.5853837,10.3549016 13.5853837,10.3269998 L21.6071567,3.71426868 L29.6289296,10.3269998 C29.6428806,10.3549016 29.6428806,10.3828034 29.6428806,10.4107052 Z M32.7539334,9.44809248 L31.888977,10.4804598 C31.8192224,10.5641652 31.7076152,10.6199689 31.5960079,10.6339198 L31.5541552,10.6339198 C31.4425479,10.6339198 31.3448915,10.606018 31.2611861,10.5362634 L21.6071567,2.48658865 L11.9531273,10.5362634 C11.855471,10.606018 11.7438637,10.6478707 11.6183055,10.6339198 C11.5066982,10.6199689 11.3950909,10.5641652 11.3253364,10.4804598 L10.46038,9.44809248 C10.30692,9.26673066 10.3348218,8.97376156 10.5161837,8.82030156 L20.5468876,0.463706774 C21.1328258,-0.0245750584 22.0814876,-0.0245750584 22.6674258,0.463706774 L26.0714477,3.30969231 L26.0714477,0.589264959 C26.0714477,0.338148588 26.2667605,0.142835855 26.5178768,0.142835855 L29.1964515,0.142835855 C29.4475678,0.142835855 29.6428806,0.338148588 29.6428806,0.589264959 L29.6428806,6.28123603 L32.6981297,8.82030156 C32.8794916,8.97376156 32.9073934,9.26673066 32.7539334,9.44809248 Z" id="home---FontAwesome"></path>
            </g>
        </g>
    </g>
</svg>