<svg height="22" viewBox="0 0 22 22" width="22" xmlns="http://www.w3.org/2000/svg"><path d="m14.78 11.071a3.578 3.578 0 0 0 -3.572-3.571 3.578 3.578 0 0 0 -3.571 3.571 3.578 3.578 0 0 0 3.571 3.572 3.578 3.578 0 0 0 3.572-3.572zm7.143-1.52v3.097c0 .21-.168.46-.391.502l-2.58.39c-.154.447-.322.866-.545 1.27.474.684.977 1.298 1.493 1.925a.55.55 0 0 1 .14.35.466.466 0 0 1 -.126.32c-.335.447-2.218 2.497-2.693 2.497a.71.71 0 0 1 -.363-.125l-1.925-1.507c-.404.21-.837.39-1.27.53-.097.851-.18 1.758-.404 2.595a.511.511 0 0 1 -.502.39h-3.097c-.251 0-.475-.18-.502-.418l-.391-2.567a8.191 8.191 0 0 1 -1.256-.516l-1.967 1.493a.536.536 0 0 1 -.348.125.5.5 0 0 1 -.35-.153c-.739-.67-1.715-1.535-2.301-2.344a.543.543 0 0 1 .014-.642c.474-.641.99-1.255 1.465-1.91a7.401 7.401 0 0 1 -.572-1.382l-2.553-.377a.509.509 0 0 1 -.405-.502v-3.097c0-.21.167-.46.377-.502l2.595-.39c.14-.447.32-.866.544-1.284a33.7 33.7 0 0 0 -1.493-1.926.515.515 0 0 1 -.14-.334.54.54 0 0 1 .126-.321c.335-.46 2.218-2.498 2.693-2.498a.62.62 0 0 1 .362.14l1.925 1.493c.405-.21.838-.39 1.27-.53.098-.851.181-1.758.405-2.595a.511.511 0 0 1 .502-.39h3.097c.251 0 .474.18.502.418l.39 2.567c.433.14.852.307 1.256.516l1.981-1.493a.475.475 0 0 1 .335-.126.55.55 0 0 1 .349.14c.74.684 1.716 1.549 2.302 2.372.07.083.098.195.098.307a.527.527 0 0 1 -.112.32c-.474.642-.99 1.256-1.465 1.912.237.446.433.907.572 1.367l2.553.39a.509.509 0 0 1 .405.503z" fill="#fff" fill-rule="evenodd"/></svg>