<svg width="18" height="18" viewBox="0 0 18 18" xmlns="http://www.w3.org/2000/svg"><title>pencil - FontAwesome</title><path d="M4.647 16l1.015-1.016-2.623-2.622-1.015 1.015v1.194h1.428V16h1.195zm5.837-10.357c0-.145-.1-.246-.246-.246a.261.261 0 0 0-.19.078L4 11.525a.261.261 0 0 0-.078.19c0 .144.1.245.246.245a.261.261 0 0 0 .19-.078l6.049-6.05a.261.261 0 0 0 .078-.19zM9.88 3.5l4.643 4.643-9.286 9.286H.595v-4.643L9.881 3.5zm7.623 1.071c0 .38-.157.748-.413 1.005l-1.853 1.853-4.643-4.643L12.448.944A1.4 1.4 0 0 1 13.452.52c.38 0 .748.156 1.016.424l2.623 2.612c.256.268.413.636.413 1.015z" fill="#FFF" fill-rule="evenodd"/></svg>