<svg width="32" height="33" viewBox="0 0 32 33" xmlns="http://www.w3.org/2000/svg"><title></title><path d="M16 .571c8.84 0 16 7.161 16 16 0 8.786-7.125 16-16 16-8.857 0-16-7.196-16-16 0-8.839 7.16-16 16-16zm11.054 24.125c1.66-2.285 2.66-5.089 2.66-8.125 0-7.553-6.16-13.714-13.714-13.714S2.286 9.017 2.286 16.571c0 3.036 1 5.84 2.66 8.125.643-3.196 2.197-5.839 5.465-5.839a7.974 7.974 0 0 0 11.178 0c3.268 0 4.822 2.643 5.465 5.84zm-4.197-11.553A6.859 6.859 0 0 1 16 20a6.859 6.859 0 0 1-6.857-6.857A6.859 6.859 0 0 1 16 6.286a6.859 6.859 0 0 1 6.857 6.857z" fill="#FFF" fill-rule="evenodd"/></svg>