<svg width="16" height="18" viewBox="0 0 16 18" xmlns="http://www.w3.org/2000/svg"><title>trash - FontAwesome</title><path d="M5.714 14.214V6.357c0-.2-.156-.357-.357-.357h-.714c-.201 0-.357.156-.357.357v7.857c0 .201.156.357.357.357h.714c.201 0 .357-.156.357-.357zm2.857 0V6.357c0-.2-.156-.357-.357-.357H7.5c-.2 0-.357.156-.357.357v7.857c0 .201.156.357.357.357h.714c.201 0 .357-.156.357-.357zm2.858 0V6.357c0-.2-.157-.357-.358-.357h-.714c-.2 0-.357.156-.357.357v7.857c0 .201.156.357.357.357h.714c.201 0 .358-.156.358-.357zM5.357 3.143h5l-.536-1.306a.43.43 0 0 0-.19-.123H6.095a.376.376 0 0 0-.19.123l-.547 1.306zm10.357.357v.714c0 .201-.156.357-.357.357h-1.071v10.58c0 1.228-.804 2.278-1.786 2.278H3.214c-.982 0-1.785-1.005-1.785-2.233V4.571H.357A.353.353 0 0 1 0 4.214V3.5c0-.2.156-.357.357-.357h3.449l.781-1.864C4.81.732 5.48.286 6.071.286h3.572c.591 0 1.261.446 1.484.993l.781 1.864h3.45c.2 0 .356.156.356.357z" fill="#DF6389" fill-rule="evenodd"/></svg>