<?xml version="1.0" encoding="UTF-8"?>
<svg width="16px" height="18px" viewBox="0 0 16 18" version="1.1" xmlns="http://www.w3.org/2000/svg" xmlns:xlink="http://www.w3.org/1999/xlink">
    <!-- Generator: Sketch 46.2 (44496) - http://www.bohemiancoding.com/sketch -->
    <title>trash - FontAwesome</title>
    <desc>Created with Sketch.</desc>
    <defs></defs>
    <g id="app" stroke="none" stroke-width="1" fill="none" fill-rule="evenodd">
        <g id="/settings" transform="translate(-652.000000, -183.000000)" fill="#DF6389">
            <path d="M657.714293,197.214284 L657.714293,189.357131 C657.714293,189.156238 657.558042,188.999988 657.357149,188.999988 L656.642863,188.999988 C656.44197,188.999988 656.285719,189.156238 656.285719,189.357131 L656.285719,197.214284 C656.285719,197.415177 656.44197,197.571427 656.642863,197.571427 L657.357149,197.571427 C657.558042,197.571427 657.714293,197.415177 657.714293,197.214284 Z M660.571439,197.214284 L660.571439,189.357131 C660.571439,189.156238 660.415189,188.999988 660.214296,188.999988 L659.500009,188.999988 C659.299116,188.999988 659.142866,189.156238 659.142866,189.357131 L659.142866,197.214284 C659.142866,197.415177 659.299116,197.571427 659.500009,197.571427 L660.214296,197.571427 C660.415189,197.571427 660.571439,197.415177 660.571439,197.214284 Z M663.428585,197.214284 L663.428585,189.357131 C663.428585,189.156238 663.272335,188.999988 663.071442,188.999988 L662.357155,188.999988 C662.156262,188.999988 662.000012,189.156238 662.000012,189.357131 L662.000012,197.214284 C662.000012,197.415177 662.156262,197.571427 662.357155,197.571427 L663.071442,197.571427 C663.272335,197.571427 663.428585,197.415177 663.428585,197.214284 Z M657.357149,186.142842 L662.357155,186.142842 L661.82144,184.837037 C661.787958,184.792394 661.687512,184.725429 661.631708,184.714269 L658.093757,184.714269 C658.026793,184.725429 657.937507,184.792394 657.904025,184.837037 L657.357149,186.142842 Z M667.714304,186.499985 L667.714304,187.214272 C667.714304,187.415165 667.558054,187.571415 667.357161,187.571415 L666.285731,187.571415 L666.285731,198.151785 C666.285731,199.379465 665.482159,200.428573 664.500015,200.428573 L655.21429,200.428573 C654.232146,200.428573 653.428573,199.424108 653.428573,198.196428 L653.428573,187.571415 L652.357143,187.571415 C652.15625,187.571415 652,187.415165 652,187.214272 L652,186.499985 C652,186.299092 652.15625,186.142842 652.357143,186.142842 L655.805808,186.142842 L656.587059,184.279 C656.810274,183.732125 657.479917,183.285696 658.071436,183.285696 L661.642869,183.285696 C662.234387,183.285696 662.904031,183.732125 663.127245,184.279 L663.908496,186.142842 L667.357161,186.142842 C667.558054,186.142842 667.714304,186.299092 667.714304,186.499985 Z" id="trash---FontAwesome"></path>
        </g>
    </g>
</svg>