<svg width="23" height="22" viewBox="0 0 23 22" xmlns="http://www.w3.org/2000/svg"><title>arrow-circle-o-up - FontAwesome</title><path d="M16.39 10.792a.457.457 0 0 1-.418.28h-2.678v4.91a.44.44 0 0 1-.447.447H10.17a.44.44 0 0 1-.447-.447v-4.91H7.044a.44.44 0 0 1-.447-.447c0-.126.056-.237.14-.335l4.45-4.45a.492.492 0 0 1 .32-.126c.112 0 .224.042.322.126l4.464 4.464c.126.14.167.321.098.488zm-4.882-7.31c-4.185 0-7.59 3.404-7.59 7.59 0 4.185 3.405 7.589 7.59 7.589 4.185 0 7.59-3.404 7.59-7.59 0-4.185-3.405-7.589-7.59-7.589zm10.714 7.59c0 5.915-4.799 10.714-10.714 10.714S.794 16.986.794 11.07 5.593.357 11.508.357s10.714 4.8 10.714 10.714z" fill="#F5BF68" fill-rule="evenodd"/></svg>