<?xml version="1.0" encoding="UTF-8"?>
<svg width="23px" height="22px" viewBox="0 0 23 22" version="1.1" xmlns="http://www.w3.org/2000/svg" xmlns:xlink="http://www.w3.org/1999/xlink">
    <!-- Generator: Sketch 46.2 (44496) - http://www.bohemiancoding.com/sketch -->
    <title>check-circle-o - FontAwesome</title>
    <desc>Created with Sketch.</desc>
    <defs></defs>
    <g id="app" stroke="none" stroke-width="1" fill="none" fill-rule="evenodd">
        <g id="/edit" transform="translate(-29.000000, -24.000000)" fill="#FFFFFF">
            <g id="Menu">
                <g id="Published" transform="translate(0.000000, 24.000000)">
                    <path d="M46.2569947,9.91349244 L40.3697109,15.8007762 C40.0209382,16.149549 39.4629018,16.149549 39.1141291,15.8007762 L35.0125617,11.6992089 C34.663789,11.3504361 34.663789,10.7923997 35.0125617,10.443627 L36.4355545,9.02063423 C36.7843272,8.6718615 37.3423636,8.6718615 37.6911363,9.02063423 L39.74192,11.0714179 L43.5784201,7.23491782 C43.9271929,6.88614508 44.4852292,6.88614508 44.834002,7.23491782 L46.2569947,8.65791059 C46.6057675,9.00668332 46.6057675,9.5647197 46.2569947,9.91349244 Z M48.224073,11.0714179 C48.224073,6.88614508 44.8200511,3.48212317 40.6347782,3.48212317 C36.4495054,3.48212317 33.0454835,6.88614508 33.0454835,11.0714179 C33.0454835,15.2566908 36.4495054,18.6607127 40.6347782,18.6607127 C44.8200511,18.6607127 48.224073,15.2566908 48.224073,11.0714179 Z M51.3490767,11.0714179 C51.3490767,16.9866036 46.5499638,21.7857164 40.6347782,21.7857164 C34.7195926,21.7857164 29.9204797,16.9866036 29.9204797,11.0714179 C29.9204797,5.1562323 34.7195926,0.357119441 40.6347782,0.357119441 C46.5499638,0.357119441 51.3490767,5.1562323 51.3490767,11.0714179 Z" id="check-circle-o---FontAwesome"></path>
                </g>
            </g>
        </g>
    </g>
</svg>