<?xml version="1.0" encoding="UTF-8"?>
<svg width="12px" height="21px" viewBox="0 0 12 21" version="1.1" xmlns="http://www.w3.org/2000/svg" xmlns:xlink="http://www.w3.org/1999/xlink">
    <!-- Generator: Sketch 46.2 (44496) - http://www.bohemiancoding.com/sketch -->
    <title>Arrow-left - simple-line-icons</title>
    <desc>Created with Sketch.</desc>
    <defs></defs>
    <g id="app" stroke="none" stroke-width="1" fill="none" fill-rule="evenodd">
        <g id="/schema" transform="translate(-110.000000, -16.000000)" fill="#1D7CE2">
            <g id="Sidepanel" transform="translate(95.000000, 11.000000)">
                <g id="Back-button">
                    <path d="M25.6875,5.25 C25.7786463,5.25 25.8632809,5.26627588 25.9414062,5.29882812 C26.0195316,5.33138037 26.0911455,5.38020801 26.15625,5.4453125 C26.286459,5.57552148 26.3515625,5.7350251 26.3515625,5.92382812 C26.3515625,6.11263115 26.286459,6.27213477 26.15625,6.40234375 L17.25,15.3085938 L26.0390625,24.0976562 C26.1692715,24.2278652 26.234375,24.3841137 26.234375,24.5664062 C26.234375,24.7486988 26.1692715,24.9049473 26.0390625,25.0351562 C25.9088535,25.1653652 25.7493499,25.2304688 25.5605469,25.2304688 C25.3717438,25.2304688 25.2122402,25.1653652 25.0820312,25.0351562 L15.8242188,15.7773438 C15.6940098,15.6471348 15.6289062,15.4908863 15.6289062,15.3085938 C15.6289062,15.1263012 15.6940098,14.9700527 15.8242188,14.8398438 L25.21875,5.4453125 C25.2838545,5.38020801 25.3587235,5.33138037 25.4433594,5.29882812 C25.5279952,5.26627588 25.6093746,5.25 25.6875,5.25 Z" id="Arrow-left---simple-line-icons"></path>
                </g>
            </g>
        </g>
    </g>
</svg>