<svg width="21" height="18" viewBox="0 0 21 18" xmlns="http://www.w3.org/2000/svg"><title>external-link - FontAwesome</title><path d="M16.027 11.214v3.572A3.215 3.215 0 0 1 12.813 18H3.527a3.215 3.215 0 0 1-3.215-3.214V5.5a3.215 3.215 0 0 1 3.215-3.214h7.857c.2 0 .357.156.357.357v.714c0 .201-.156.357-.357.357H3.527c-.982 0-1.786.804-1.786 1.786v9.286c0 .982.804 1.785 1.786 1.785h9.286c.982 0 1.785-.803 1.785-1.785v-3.572c0-.2.156-.357.357-.357h.715c.2 0 .357.156.357.357zm4.286-9.643v5.715a.72.72 0 0 1-.715.714.71.71 0 0 1-.502-.212l-1.964-1.964L9.855 13.1a.385.385 0 0 1-.257.112.385.385 0 0 1-.256-.112l-1.273-1.272a.385.385 0 0 1-.111-.257c0-.089.044-.19.111-.256l7.277-7.277-1.964-1.964a.71.71 0 0 1-.212-.503.72.72 0 0 1 .714-.714h5.714a.72.72 0 0 1 .715.714z" fill="#FFF" fill-rule="evenodd"/></svg>