<?xml version="1.0" encoding="UTF-8"?>
<svg width="18px" height="18px" viewBox="0 0 18 18" version="1.1" xmlns="http://www.w3.org/2000/svg" xmlns:xlink="http://www.w3.org/1999/xlink">
    <!-- Generator: Sketch 46.2 (44496) - http://www.bohemiancoding.com/sketch -->
    <title>pencil - FontAwesome</title>
    <desc>Created with Sketch.</desc>
    <defs></defs>
    <g id="app" stroke="none" stroke-width="1" fill="none" fill-rule="evenodd">
        <g id="/edit" transform="translate(-31.000000, -390.000000)" fill="#FFFFFF">
            <g id="Menu">
                <path d="M35.6465822,406 L36.6622084,404.984374 L34.0394374,402.361603 L33.0238112,403.377229 L33.0238112,404.571427 L34.4523843,404.571427 L34.4523843,406 L35.6465822,406 Z M41.4836427,395.642845 C41.4836427,395.497755 41.3831961,395.397309 41.2381067,395.397309 C41.1711423,395.397309 41.1041779,395.41963 41.0483743,395.475434 L34.99926,401.524548 C34.9434563,401.580352 34.9211349,401.647316 34.9211349,401.714281 C34.9211349,401.85937 35.0215814,401.959817 35.1666709,401.959817 C35.2336352,401.959817 35.3005996,401.937495 35.3564032,401.881692 L41.4055176,395.832577 C41.4613212,395.776774 41.4836427,395.709809 41.4836427,395.642845 Z M40.8809634,393.499985 L45.5238261,398.142848 L36.2381007,407.428573 L31.595238,407.428573 L31.595238,402.78571 L40.8809634,393.499985 Z M48.5037403,394.571415 C48.5037403,394.95088 48.3474902,395.319184 48.0907934,395.57588 L46.2381126,397.428561 L41.59525,392.785699 L43.4479307,390.944178 C43.7046275,390.676321 44.0729315,390.520071 44.4523962,390.520071 C44.831861,390.520071 45.200165,390.676321 45.4680224,390.944178 L48.0907934,393.555789 C48.3474902,393.823646 48.5037403,394.19195 48.5037403,394.571415 Z" id="pencil---FontAwesome"></path>
            </g>
        </g>
    </g>
</svg>