<svg width="23" height="18" viewBox="0 0 23 18" xmlns="http://www.w3.org/2000/svg"><title>home - FontAwesome</title><path d="M19.643 10.41v6.697a.9.9 0 0 1-.893.893h-5.357v-5.357H9.82V18H4.464a.9.9 0 0 1-.893-.893v-6.696c0-.028.014-.056.014-.084l8.022-6.613 8.022 6.613a.177.177 0 0 1 .014.084zm3.11-.962l-.864 1.032a.464.464 0 0 1-.293.154h-.042a.438.438 0 0 1-.293-.098l-9.654-8.05-9.654 8.05a.476.476 0 0 1-.335.098.464.464 0 0 1-.293-.154L.46 9.448a.457.457 0 0 1 .056-.628L10.546.464c.587-.489 1.535-.489 2.121 0l3.404 2.846V.59a.44.44 0 0 1 .447-.447h2.678a.44.44 0 0 1 .447.446v5.692l3.055 2.54c.181.153.21.446.056.627z" fill="#82879E" fill-rule="evenodd"/></svg>