<svg width="22" height="22" viewBox="0 0 22 22" xmlns="http://www.w3.org/2000/svg"><title></title><path d="M14.365 17.768v-2.232a.44.44 0 0 0-.447-.447H12.58V7.946a.44.44 0 0 0-.446-.446H7.668a.44.44 0 0 0-.446.446v2.233a.44.44 0 0 0 .446.446h1.34v4.464h-1.34a.44.44 0 0 0-.446.447v2.232a.44.44 0 0 0 .446.446h6.25a.44.44 0 0 0 .447-.446zm-1.786-12.5V3.036a.44.44 0 0 0-.446-.447H9.454a.44.44 0 0 0-.446.447v2.232a.44.44 0 0 0 .446.446h2.679a.44.44 0 0 0 .446-.446zm8.929 5.803c0 5.916-4.8 10.715-10.715 10.715S.08 16.986.08 11.07 4.88.357 10.793.357c5.916 0 10.715 4.8 10.715 10.714z" fill="#88BBF9" fill-rule="evenodd"/></svg>