<svg width="21" height="19" viewBox="0 0 21 19" xmlns="http://www.w3.org/2000/svg"><title>{ }</title><path d="M.273 7.979c.75 0 1.337-.145 1.763-.435.427-.29.64-.698.64-1.226v-2.48c0-.905.16-1.582.478-2.031.32-.45.839-.777 1.558-.982C5.432.62 6.426.518 7.695.518v2.724c-.58.02-.971.064-1.176.132a1.09 1.09 0 0 0-.494.317c-.123.144-.185.339-.185.586v2.647c0 .736-.184 1.3-.552 1.694-.368.394-.965.65-1.792.767v.117c.833.13 1.432.387 1.797.771.365.385.547.928.547 1.631V14.6c0 .254.068.452.205.595.137.144.319.25.547.318.228.068.595.112 1.103.132v2.714c-1.282 0-2.282-.104-2.998-.312-.716-.208-1.232-.539-1.548-.991-.315-.453-.473-1.138-.473-2.056v-2.422c0-.52-.218-.928-.655-1.22-.436-.294-1.018-.44-1.748-.44v-2.94zm20.069 2.939c-.723 0-1.302.146-1.738.44-.437.292-.655.7-.655 1.22V15c0 .911-.16 1.595-.478 2.05-.32.457-.837.789-1.553.997-.716.208-1.712.312-2.988.312v-2.714c.703-.027 1.188-.123 1.455-.289.267-.166.4-.418.4-.756v-2.696c0-.703.182-1.246.547-1.63.365-.385.964-.642 1.797-.772v-.117c-.827-.117-1.424-.373-1.792-.767-.368-.394-.552-.958-.552-1.694V4.277c0-.254-.063-.45-.19-.59a1.15 1.15 0 0 0-.489-.313c-.198-.068-.59-.112-1.176-.132V.518c1.276 0 2.272.102 2.988.307.716.205 1.234.532 1.553.982.319.449.478 1.126.478 2.03v2.481c0 .528.212.936.635 1.226.423.29 1.01.435 1.758.435v2.939z" fill="#FFF" fill-rule="evenodd"/></svg>