<svg width="20" height="19" viewBox="0 0 20 19" xmlns="http://www.w3.org/2000/svg"><title>Refresh - simple-line-icons</title><path d="M2.451 8.967l-.176.117a.336.336 0 0 1-.166.068.467.467 0 0 1-.166-.01.357.357 0 0 1-.146-.078.853.853 0 0 1-.127-.136l-.098-.196-1.504-2.91A.405.405 0 0 1 .04 5.51a.457.457 0 0 1 .205-.254L.4 5.197a.4.4 0 0 1 .332-.049c.118.033.202.101.254.206l.82 1.582v-.04c0-.013.007-.026.02-.039a7.663 7.663 0 0 1 .625-1.68 9.101 9.101 0 0 1 .967-1.503 8.233 8.233 0 0 1 1.25-1.27c.462-.377.967-.71 1.514-.996A8.789 8.789 0 0 1 7.754.783 8.364 8.364 0 0 1 9.394.48a8.951 8.951 0 0 1 1.67.02c.56.059 1.114.179 1.66.361.547.17 1.065.394 1.553.674.489.28.948.602 1.377.967.43.365.82.768 1.172 1.21.352.444.658.925.918 1.446a.542.542 0 0 1 .04.45.604.604 0 0 1-1.114.097 7.724 7.724 0 0 0-1.797-2.275 7.097 7.097 0 0 0-2.52-1.416 7.244 7.244 0 0 0-2.86-.323 7.492 7.492 0 0 0-2.764.791 8.136 8.136 0 0 0-1.28.86 7.35 7.35 0 0 0-1.904 2.373 7.115 7.115 0 0 0-.547 1.455l-.039.146a4.563 4.563 0 0 0-.04.147L4.718 6.31a.592.592 0 0 1 .351-.088c.13.006.222.062.274.166l.097.156a.456.456 0 0 1-.156.625L2.471 8.967h-.02zm11.29 8.144a8.789 8.789 0 0 1-1.573.625 8.364 8.364 0 0 1-1.64.303c-.554.046-1.11.04-1.67-.02a7.806 7.806 0 0 1-1.66-.36 8.46 8.46 0 0 1-2.94-1.611 8.745 8.745 0 0 1-1.162-1.193 8.245 8.245 0 0 1-.918-1.416.857.857 0 0 1-.059-.146.58.58 0 0 1 .068-.45.582.582 0 0 1 .245-.224.593.593 0 0 1 .468-.039c.157.052.274.15.352.293a7.362 7.362 0 0 0 4.316 3.633 7.297 7.297 0 0 0 5.625-.469 7.507 7.507 0 0 0 2.364-1.914 6.952 6.952 0 0 0 1.367-2.715c.039-.117.068-.24.088-.37.02-.131.042-.255.068-.372l-1.797 1.152a.543.543 0 0 1-.351.078c-.13-.013-.222-.071-.274-.175l-.097-.157a.4.4 0 0 1-.05-.332.456.456 0 0 1 .206-.273l2.812-1.797v-.02l.196-.097a.336.336 0 0 1 .166-.068.467.467 0 0 1 .166.01c.052.012.1.038.146.077.046.04.088.085.127.137l.098.195 1.504 2.91a.472.472 0 0 1 .029.342.458.458 0 0 1-.205.284l-.156.058a.335.335 0 0 1-.332.02.602.602 0 0 1-.274-.235l-.781-1.562a3.16 3.16 0 0 1-.117.508 8.836 8.836 0 0 1-.635 1.68 8.03 8.03 0 0 1-.957 1.484 8.725 8.725 0 0 1-1.25 1.25 8.132 8.132 0 0 1-1.514.976z" fill="#FFF" fill-rule="evenodd"/></svg>