<?xml version="1.0" encoding="UTF-8"?>
<svg width="20px" height="19px" viewBox="0 0 20 19" version="1.1" xmlns="http://www.w3.org/2000/svg" xmlns:xlink="http://www.w3.org/1999/xlink">
    <!-- Generator: Sketch 46.2 (44496) - http://www.bohemiancoding.com/sketch -->
    <title>Refresh - simple-line-icons</title>
    <desc>Created with Sketch.</desc>
    <defs></defs>
    <g id="Page-1" stroke="none" stroke-width="1" fill="none" fill-rule="evenodd">
        <g id="/edit/SlhciMfwVBM1E0VpMviy-Copy-2" transform="translate(-29.000000, -31.000000)" fill="#FFFFFF">
            <g id="Switch-mode" transform="translate(18.000000, 20.000000)">
                <path d="M20.7070312,27.8085938 L20.8242188,27.984375 C20.8632814,28.0364586 20.8860677,28.0917966 20.8925781,28.1503906 C20.8990886,28.2089847 20.8958334,28.2643227 20.8828125,28.3164062 C20.8697916,28.3684898 20.8437502,28.4173175 20.8046875,28.4628906 C20.7656248,28.5084638 20.7200523,28.5507811 20.6679688,28.5898438 L20.4726562,28.6875 L17.5625,30.1914062 C17.4583328,30.2434898 17.3541672,30.2532554 17.25,30.2207031 C17.1458328,30.1881509 17.0611982,30.1197922 16.9960938,30.015625 L16.9375,29.859375 C16.8723955,29.7552078 16.8561196,29.6445318 16.8886719,29.5273438 C16.9212241,29.4101557 16.9895828,29.3255211 17.09375,29.2734375 L18.6757812,28.453125 L18.6367188,28.453125 C18.6236979,28.453125 18.6106771,28.4466146 18.5976562,28.4335938 C18.0117158,28.2903639 17.4518256,28.0820326 16.9179688,27.8085938 C16.3841119,27.5351549 15.8828148,27.2128925 15.4140625,26.8417969 C14.9453102,26.4707013 14.5221373,26.0540388 14.1445312,25.5917969 C13.7669252,25.129555 13.4348973,24.6250027 13.1484375,24.078125 C12.8880195,23.57031 12.6796883,23.0462267 12.5234375,22.5058594 C12.3671867,21.9654921 12.2662763,21.4186226 12.2207031,20.8652344 C12.17513,20.3118462 12.1816403,19.7552111 12.2402344,19.1953125 C12.2988284,18.6354139 12.4192699,18.082034 12.6015625,17.5351562 C12.7708342,16.9882785 12.9954413,16.4707056 13.2753906,15.9824219 C13.5553399,15.4941382 13.8776023,15.0351584 14.2421875,14.6054688 C14.6067727,14.1757791 15.0104145,13.785158 15.453125,13.4335938 C15.8958355,13.0820295 16.3776016,12.776043 16.8984375,12.515625 C17.0416674,12.4374996 17.1914055,12.4244789 17.3476562,12.4765625 C17.503907,12.5286461 17.6210934,12.6263014 17.6992188,12.7695312 C17.7773441,12.925782 17.7903648,13.0820305 17.7382812,13.2382812 C17.6861977,13.394532 17.5885424,13.5117184 17.4453125,13.5898438 C16.5729123,14.0455752 15.8144563,14.6445275 15.1699219,15.3867188 C14.5253874,16.12891 14.0533869,16.9687453 13.7539062,17.90625 C13.4544256,18.8437547 13.3470048,19.7975212 13.4316406,20.7675781 C13.5162765,21.7376351 13.7799457,22.6588498 14.2226562,23.53125 C14.4700533,23.9869814 14.7565088,24.4134095 15.0820312,24.8105469 C15.4075537,25.2076843 15.7688782,25.5657536 16.1660156,25.8847656 C16.563153,26.2037776 16.9928362,26.4804676 17.4550781,26.7148438 C17.91732,26.9492199 18.4023412,27.1315098 18.9101562,27.2617188 C18.9622398,27.2747396 19.0110675,27.2877604 19.0566406,27.3007812 C19.1022138,27.3138021 19.1510414,27.3268229 19.203125,27.3398438 L18.0507812,25.5429688 C17.9856768,25.4388016 17.9563802,25.3216152 17.9628906,25.1914062 C17.9694011,25.0611973 18.0247391,24.9700523 18.1289062,24.9179688 L18.2851562,24.8203125 C18.4023443,24.755208 18.5195307,24.7389321 18.6367188,24.7714844 C18.7539068,24.8040366 18.8450518,24.8723953 18.9101562,24.9765625 L20.7070312,27.7890625 L20.7070312,27.8085938 Z M28.8515625,16.5195312 C29.1119805,17.0273463 29.3203117,17.5514296 29.4765625,18.0917969 C29.6328133,18.6321642 29.7337237,19.1790337 29.7792969,19.7324219 C29.82487,20.2858101 29.8183597,20.8424451 29.7597656,21.4023438 C29.7011716,21.9622424 29.5807301,22.5156223 29.3984375,23.0625 C29.2291658,23.6093777 29.0078139,24.1302059 28.734375,24.625 C28.4609361,25.1197941 28.1451841,25.5787739 27.7871094,26.0019531 C27.4290347,26.4251323 27.0319032,26.8124982 26.5957031,27.1640625 C26.159503,27.5156268 25.6875025,27.8216133 25.1796875,28.0820312 C25.1276039,28.108073 25.0787763,28.1276041 25.0332031,28.140625 C24.98763,28.1536459 24.9388023,28.1601562 24.8867188,28.1601562 C24.7825516,28.1601562 24.6816411,28.1308597 24.5839844,28.0722656 C24.4863276,28.0136716 24.4114586,27.9322922 24.359375,27.828125 C24.2812496,27.6718742 24.2682289,27.5156258 24.3203125,27.359375 C24.3723961,27.2031242 24.4700514,27.0859379 24.6132812,27.0078125 C25.4856814,26.5520811 26.2343719,25.9531287 26.859375,25.2109375 C27.4843781,24.4687463 27.9466131,23.6289109 28.2460938,22.6914062 C28.5455744,21.7539016 28.6562504,20.8033902 28.578125,19.8398438 C28.4999996,18.8762973 28.2330752,17.9518273 27.7773438,17.0664062 C27.2955705,16.1419225 26.6575561,15.3541699 25.8632812,14.703125 C25.0690064,14.0520801 24.1640676,13.5963555 23.1484375,13.3359375 C23.0312494,13.2968748 22.9075527,13.2675782 22.7773438,13.2480469 C22.6471348,13.2285155 22.5234381,13.2057293 22.40625,13.1796875 L23.5585938,14.9765625 C23.6236982,15.0807297 23.6497396,15.197916 23.6367188,15.328125 C23.6236979,15.458334 23.5651047,15.5494789 23.4609375,15.6015625 L23.3046875,15.6992188 C23.2005203,15.7643232 23.0898443,15.7805991 22.9726562,15.7480469 C22.8554682,15.7154946 22.7643232,15.6471359 22.6992188,15.5429688 L20.9023438,12.7304688 L20.8828125,12.7304688 L20.7851562,12.5351562 C20.7460936,12.4830727 20.7233073,12.4277347 20.7167969,12.3691406 C20.7102864,12.3105466 20.7135416,12.2552086 20.7265625,12.203125 C20.7395834,12.1510414 20.7656248,12.1022138 20.8046875,12.0566406 C20.8437502,12.0110675 20.8893227,11.9687502 20.9414062,11.9296875 L21.1367188,11.8320312 L24.046875,10.328125 C24.1510422,10.2760414 24.2649733,10.2662759 24.3886719,10.2988281 C24.5123704,10.3313804 24.6067705,10.3997391 24.671875,10.5039062 L24.7304688,10.6601562 C24.7955732,10.7643234 24.8020836,10.8749994 24.75,10.9921875 C24.6979164,11.1093756 24.6197922,11.2005205 24.515625,11.265625 L22.953125,12.046875 C23.0442713,12.0598959 23.132161,12.0761718 23.2167969,12.0957031 C23.3014327,12.1152345 23.3828121,12.1380207 23.4609375,12.1640625 C24.0468779,12.3203133 24.6067682,12.5318997 25.140625,12.7988281 C25.6744818,13.0657565 26.1692686,13.3847638 26.625,13.7558594 C27.0807314,14.126955 27.4973939,14.5436175 27.875,15.0058594 C28.2526061,15.4681013 28.5781236,15.9726535 28.8515625,16.5195312 Z" id="Refresh---simple-line-icons" transform="translate(21.000000, 20.259766) rotate(90.000000) translate(-21.000000, -20.259766) "></path>
            </g>
        </g>
    </g>
</svg>